<svg xmlns="http://www.w3.org/2000/svg" xmlns:xlink="http://www.w3.org/1999/xlink" id="Group_49265" data-name="Group 49265" width="69.94" height="58.28" viewBox="0 0 69.94 58.28"><defs><clipPath id="clip-path"><rect id="Rectangle_17240" data-name="Rectangle 17240" width="69.94" height="58.28"></rect></clipPath></defs><rect id="Rectangle_17239" data-name="Rectangle 17239" width="6.106" height="24.426" transform="translate(31.77 33.854)" fill="#0a0406"></rect><g id="Group_49264" data-name="Group 49264"><g id="Group_49263" data-name="Group 49263" clip-path="url(#clip-path)"><path id="Path_99734" data-name="Path 99734" d="M20.108,166.475a6.7,6.7,0,0,1-13.405,0v-13.4H0v13.4a13.405,13.405,0,0,0,26.81,0v-13.4h-6.7Z" transform="translate(0 -121.6)"></path><path id="Path_99735" data-name="Path 99735" d="M56.852,155.986a2.914,2.914,0,1,0-2.914,2.914,2.914,2.914,0,0,0,2.914-2.914" transform="translate(-40.533 -121.601)"></path><path id="Path_99736" data-name="Path 99736" d="M51.571,15.445h6.713v-2.04a13.405,13.405,0,1,0-25.013,6.7H25.013a13.4,13.4,0,1,0-11.607,6.7H58.284v-6.7H44.878a6.7,6.7,0,1,1,6.7-6.7c0,.086-.007.171-.01.256ZM13.405,20.108a6.7,6.7,0,1,1,6.7-6.7,6.7,6.7,0,0,1-6.7,6.7" transform="translate(0 -0.001)"></path><path id="Path_99737" data-name="Path 99737" d="M217.089,166.475a6.7,6.7,0,0,1-6.7,6.7h-2.04v6.66h.976q.526.042,1.064.042a13.4,13.4,0,0,0,13.4-13.4v-13.4h-6.7Z" transform="translate(-165.508 -121.6)"></path><path id="Path_99738" data-name="Path 99738" d="M309.62,255.416c-2.137,0-3.478-1.419-3.478-3.73a3.185,3.185,0,0,1,3.5-3.529c2.156,0,3.5,1.295,3.5,3.711a3.187,3.187,0,0,1-3.516,3.548m.009-5.6c-1.265,0-2.2.585-2.2,1.956,0,1.438.939,1.995,2.184,1.995s2.242-.546,2.242-1.927c0-1.5-.958-2.023-2.223-2.023" transform="translate(-243.196 -197.136)"></path><path id="Path_99739" data-name="Path 99739" d="M313.428,212.54h-6.774v-1.985l5.317-1.889-5.317-2.167v-1.889h6.774v1.63h-2.52l-1.59-.067v.038l4.11,1.592v1.822l-4.12,1.342v.038l1.6-.1h2.52Z" transform="translate(-243.603 -162.542)"></path><path id="Path_99740" data-name="Path 99740" d="M306.654,173.2v-2.637c0-1.525.7-2.618,2.213-2.618a2.036,2.036,0,0,1,1.83,1.093l2.731-2.177v2.081l-2.347,1.726c.009.115.009.269.009.393v.5h2.338v1.64Zm3.3-2.2c0-.969-.4-1.381-1.044-1.381-.68,0-.968.278-.968,1.151v.786h2.012Z" transform="translate(-243.603 -132.558)"></path><path id="Path_99741" data-name="Path 99741" d="M306.655,135.882v-2.1l6.773-2.282v1.688l-1.983.642v2.292l1.983.738v1.63Zm3.612-1.669-2.606.681,2.606.8Z" transform="translate(-243.603 -104.463)"></path><path id="Path_99742" data-name="Path 99742" d="M313.428,103.933h-6.774v-1.889l4.647-2.637v-.029l-.757.048h-3.89V97.8h6.774v1.947L308.9,102.3v.038l.9-.038h3.631Z" transform="translate(-243.603 -77.689)"></path></g></g></svg>